<mxfile host="app.diagrams.net" modified="2024-07-10T07:39:27.235Z" agent="Mozilla/5.0 (Windows NT 10.0; Win64; x64) AppleWebKit/537.36 (KHTML, like Gecko) Chrome/126.0.0.0 Safari/537.36" version="24.6.4" etag="t7_sT7o1SeR25wSBwwlL" type="github">
  <diagram name="페이지-1" id="_x473S37AFwzH2of833J">
    <mxGraphModel>
      <root>
        <mxCell id="0" />
        <mxCell id="1" parent="0" />
      </root>
    </mxGraphModel>
  </diagram>
</mxfile>
